<?xml version="1.0" standalone="no"?><!DOCTYPE svg PUBLIC "-//W3C//DTD SVG 1.1//EN" "http://www.w3.org/Graphics/SVG/1.1/DTD/svg11.dtd"><svg t="1739084866184" class="icon" viewBox="0 0 1024 1024" version="1.1" xmlns="http://www.w3.org/2000/svg" p-id="2974" xmlns:xlink="http://www.w3.org/1999/xlink" width="200" height="200"><path d="M878.336 392.106667L631.893333 145.664a33.109333 33.109333 0 0 0-46.933333 0l-161.194667 161.28a329.557333 329.557333 0 0 0-243.285333 70.314667 33.28 33.28 0 0 0-2.645333 49.322666l181.674666 181.76L144.128 823.466667a15.786667 15.786667 0 0 0-4.608 9.813333l-3.413333 37.205333c-0.853333 9.386667 6.570667 17.408 15.872 17.408l1.536-0.085333 37.205333-3.413333a15.786667 15.786667 0 0 0 9.813333-4.608l215.381334-215.381334 181.76 181.76a33.109333 33.109333 0 0 0 49.322666-2.730666 330.24 330.24 0 0 0 70.229334-243.456l161.109333-161.109334a33.109333 33.109333 0 0 0 0-46.762666zM666.197333 549.290667l-24.490666 24.490666 3.754666 34.389334a259.925333 259.925333 0 0 1-30.378666 153.941333L261.973333 408.746667a258.645333 258.645333 0 0 1 153.941334-30.378667l34.389333 3.754667 24.490667-24.490667 133.717333-133.717333 191.488 191.488-133.802667 133.802666z" p-id="2975" style="fill:#8bc34a"></path></svg>