<?xml version="1.0" standalone="no"?><!DOCTYPE svg PUBLIC "-//W3C//DTD SVG 1.1//EN" "http://www.w3.org/Graphics/SVG/1.1/DTD/svg11.dtd"><svg t="1739084855788" class="icon" viewBox="0 0 1024 1024" version="1.1" xmlns="http://www.w3.org/2000/svg" p-id="2828" xmlns:xlink="http://www.w3.org/1999/xlink" width="200" height="200"><path d="M588.16 817.6c-26.88 9.984-57.088 3.456-77.312-16.832L387.2 676.992l-184.96 185.792a36.544 36.544 0 1 1-51.84-51.584L335.488 625.28l-128-128a73.152 73.152 0 0 1 46.336-124.672l144.256-10.752 21.12-21.12-85.696-183.68a32 32 0 1 1 58.048-27.136l75.776 162.56 55.808-55.872 29.44-67.776a73.152 73.152 0 0 1 118.848-22.592l191.552 191.744a73.152 73.152 0 0 1-22.144 118.592l-67.84 30.08-127.36 127.424-3.84 52.672 74.304 159.232a32 32 0 1 1-57.984 27.072l-31.808-68.16c-8.32 14.848-21.696 26.56-38.208 32.704z m5.248-254.72l137.472-137.6 80.384-35.648-191.616-191.744-34.88 80.576-84.48 84.608 93.12 199.808zM430.656 432.768l-171.392 12.8 303.36 303.488 6.208-87.36-116.736-250.432-21.44 21.504z" p-id="2829" style="fill:#8bc34a"></path></svg>